<svg height="700pt" preserveAspectRatio="xMidYMid meet" viewBox="0 0 700 700" width="700pt" xmlns="http://www.w3.org/2000/svg"><g transform="matrix(.1 0 0 -.1 0 700)"><path d="m0 3500v-3500h3500 3500v3500 3500h-3500-3500zm6677 0v-3177h-3174c-1745 0-3174 3-3175 6-3 11-5 6336-2 6342 2 3 1431 5 3177 5h3174z"/><path d="m853 6203c3-5 21-60 41-123s65-203 101-310c35-107 118-364 185-570 66-206 137-423 157-482l36-107 196 1h197l262 788c144 433 262 793 262 799 0 8-55 11-178 11h-178l-32-102c-18-57-53-164-77-238s-73-229-110-345c-142-442-142-443-152-415-5 14-86 267-179 562l-169 538h-183c-101 0-181-3-179-7z"/><path d="m2461 5411v-799h604c448 0 604 3 607 11 3 10 2 194-1 265l-1 22h-429-429v195l-1 195h388 387v135 135l-26 1c-14 0-188 0-386 1h-362l2 171 1 171 420 1h419l2 148 1 147h-598-598z"/><path d="m3939 6198c-1-17-1-1559 0-1575 1-9 43-12 164-10l162 2 2 520c0 286 1 526 2 534s98-143 217-335 228-367 243-390c14-22 67-106 116-186l90-146 175 1 175 2 1 798v797l-165-2-165-3v-532c0-293-1-533-2-533s-131 208-289 463c-159 254-302 485-320 512-18 28-37 60-44 73-11 22-15 22-186 22-133 0-175-3-176-12z"/><path d="m5625 5418c1-436 3-796 3-799 1-4 78-7 171-7 122-1 170 3 173 11 3 10 2 1557-1 1580-1 4-79 7-174 7h-173z"/><path d="m860 4333c0-7 34-118 76-246 111-342 189-580 319-979l116-358h198 197l119 358c66 196 120 359 120 362s65 197 143 431 142 431 142 436c0 14-346 12-358-2-4-5-16-37-26-70-18-60-153-485-205-645-16-47-50-154-77-238-26-83-51-149-55-145-4 5-26 69-49 143-22 74-45 146-50 160s-38 117-74 230c-35 113-91 288-123 390l-59 185-177 1c-146 1-177-1-177-13z"/><path d="m2734 4341c-7-4-12-1508-5-1578 1-10 43-13 174-13h173v799 799h-167c-91 0-170-3-175-7z"/><path d="m3679 4346c-5-5-3-1580 2-1588 4-6 157-8 420-6 463 5 469 6 614 78 179 89 300 258 352 490 21 96 25 327 7 425-60 323-239 519-534 586-38 8-182 13-457 14-222 1-404 2-404 1zm666-299c270-19 401-203 390-547-6-189-62-317-172-389-80-53-136-64-338-66-99-1-184 0-190 2-7 2-10 177-9 501l1 497 114 5c63 3 119 4 124 3 6-1 42-4 80-6z"/><path d="m5628 4341c0-3-2-363-3-799l-1-792 175 2 175 3 1 797v796h-172c-95 0-174-3-175-7z"/><path d="m1024 1688 1-797 158-3c88-2 161 0 164 5 2 4 4 241 4 527s4 520 9 520c4 0 28-33 53-72 177-286 491-791 546-878l66-105 169 3c93 1 171 4 173 6 3 2 6 1247 4 1516l-1 75h-163-163v-532c1-293-2-533-6-533-3 0-18 21-33 47-15 25-150 242-299 482-150 240-279 447-287 461-7 14-16 27-19 30s-10 14-16 25c-11 19-22 20-186 20h-174z"/><path d="m3141 2470c-3-8-6-367-5-798l1-783h136c75 0 155 1 177 1h40v330 329h158 333l176 1-1 135v135h-333-333v185 185h385 386l-3 147-3 148h-553c-484 0-555-2-561-15z"/><path d="m4801 2480c-4-3-7-69-7-147v-143l239-2 239-3v-647-648l66-1c285-2 276-3 282 23 3 12 5 304 5 648l-1 625 239 5 239 5v138c0 77-4 142-7 145-8 8-1283 10-1294 2z"/></g></svg>