<svg height="55.1526" viewBox="0 0 268.2086 55.1526" width="268.2086" xmlns="http://www.w3.org/2000/svg"><g fill="#1a1a1a"><path d="m36.6983 31.3307c0 2.8769-.7137 5.0058-2.1402 6.3853-1.4275 1.38-3.0062 2.0697-4.7363 2.0697h-16.63c0 1.3105.7717 2.4099 2.3154 3.2979 1.5437.8895 3.0874 1.3335 4.6313 1.3335 2.7124 0 4.8416-.281 6.3853-.842l.7717-.281c1.1227-.514 2.0579-.7715 2.8069-.7715 1.4964 0 2.7826 1.0525 3.8591 3.1574.6075 1.263.9122 2.3399.9122 3.2279 0 4.1639-4.9818 6.2448-14.946 6.2448-3.4621 0-6.5375-.5962-9.2272-1.7892-2.6904-1.193-4.7833-2.7717-6.28-4.7366-2.9472-3.7889-4.4206-8.0222-4.4206-12.7006 0-5.8938 1.9057-10.6064 5.7188-14.1388 3.8121-3.5314 8.5714-5.2976 14.2793-5.2976 6.5015 0 11.2731 2.2924 14.3145 6.8763 1.5897 2.4329 2.3857 5.0871 2.3857 7.9645zm-14.8055 2.0697c1.7772 0 2.6664-.7475 2.6664-2.2454 0-1.0755-.4103-1.9404-1.228-2.5959-.819-.655-1.989-.9825-3.5086-.9825-1.5205 0-3.0292.6202-4.5258 1.8592-1.4975 1.24-2.2454 2.5612-2.2454 3.9646h8.8415z"/><path d="m53.3282 22.1732c2.1982-3.3209 4.8416-4.9818 7.929-4.9818 4.7716 0 8.326 2.0349 10.6656 6.1048.5142-.702 1.1337-1.4387 1.8597-2.2102.7247-.772 1.8824-1.6139 3.4731-2.5264 1.5899-.912 3.2279-1.3682 4.9118-1.3682 3.7421 0 6.8765 1.4387 9.4027 4.3156s3.7891 7.637 3.7891 14.2793v12.2796c0 1.0765-.035 1.8832-.1052 2.4207-.0702.5385-.2927 1.1577-.6665 1.8597-.6085 1.263-2.4099 1.8944-5.4031 1.8944-2.9472 0-4.7486-.6545-5.4031-1.9649-.3277-.7015-.5262-1.3212-.5965-1.8592-.07-.5375-.1052-1.3442-.1052-2.4212v-12.2796c0-4.0694-1.4505-6.1043-4.3504-6.1043-1.638 0-2.7487.538-3.3331 1.6139-.5855 1.0765-.877 2.5959-.877 4.5608v12.2796c0 1.1225-.0353 1.9414-.1052 2.4559-.0702.515-.2927 1.1225-.6667 1.8244-.6555 1.263-2.4799 1.8944-5.4731 1.8944-2.9472 0-4.7486-.6545-5.4031-1.9649-.3277-.7015-.5262-1.3212-.5965-1.8592-.07-.5375-.1052-1.3442-.1052-2.4212v-12.2796c0-4.0694-1.4505-6.1043-4.3504-6.1043-2.8067 0-4.2101 2.0349-4.2101 6.1043v12.4201c0 1.0765-.0353 1.8837-.1052 2.4207-.0702.5385-.2927 1.1577-.6667 1.8597-.7017 1.217-2.5259 1.8244-5.4731 1.8244s-4.7483-.6315-5.4031-1.8944c-.3277-.702-.5262-1.3094-.5965-1.8244-.07-.5145-.1052-1.3335-.1052-2.4559v-24.6996c0-1.0755.0353-1.8822.1052-2.4207.0702-.5375.2917-1.1337.6667-1.7892.7017-1.2635 2.3617-1.8949 4.9821-1.8949s4.3263.421 5.1221 1.2635c.795.842 1.193 2.0589 1.193 3.6484z"/><path d="m105.8142 21.8928c3.9294-3.6489 8.4202-5.4733 13.4723-5.4733s9.5189 1.8137 13.4023 5.4381c3.8821 3.6259 5.8241 8.245 5.8241 13.8583 0 3.8834-1.0065 7.333-3.0174 10.3499-2.0119 3.0174-4.4556 5.2398-7.3325 6.6663-2.8769 1.4275-5.8593 2.1402-8.9467 2.1402s-6.0815-.7597-8.9814-2.2807c-2.9012-1.5194-5.3451-3.7649-7.3328-6.7363-1.9887-2.9699-2.9821-6.326-2.9821-10.0689 0-5.6138 1.9647-10.2447 5.8943-13.8935zm8.7709 18.9106c1.4967 1.1465 3.0174 1.7192 4.5611 1.7192s3.0874-.5845 4.6311-1.7544c1.5437-1.1689 2.3154-2.8999 2.3154-5.1923s-.7257-3.9999-2.1752-5.1223c-1.4505-1.123-3.0171-1.6839-4.7013-1.6839s-3.2519.585-4.7013 1.7539c-1.4505 1.17-2.1752 2.8892-2.1752 5.1576s.7477 3.9764 2.2454 5.1223z"/><path d="m167.8778 1.8597c.351-.6775.9705-1.1577 1.8594-1.4387.8882-.2805 2.0702-.421 3.5436-.421s2.6544.1405 3.5436.421c.888.281 1.5084.772 1.8594 1.4734.3507.702.5612 1.3227.6315 1.8597.0702.5385.1052 1.3452.1052 2.4207v41.8911c0 1.0765-.035 1.8832-.1052 2.4207-.0702.5385-.2927 1.1347-.6667 1.7892-.7015 1.263-2.6784 1.8944-5.929 1.8944s-5.0643-1.1454-5.4381-3.4379c-1.9649 2.2454-4.7013 3.3679-8.21 3.3679-4.2101 0-8.0462-1.8352-11.5076-5.5081-3.4624-3.6719-5.1923-7.9522-5.1923-12.8411s1.7419-9.1799 5.2276-12.8758c3.4841-3.6949 7.3085-5.5433 11.4724-5.5433 3.4614 0 6.1508 1.17 8.0695 3.5084v-14.7355c0-1.0755.035-1.8827.1052-2.4207.0702-.5375.2807-1.146.6315-1.8244zm-11.4024 38.1365c1.216 1.263 2.6894 1.8949 4.4206 1.8949 1.7302 0 3.1686-.632 4.3154-1.8949 1.1457-1.263 1.7192-2.6541 1.7192-4.1751 0-1.5194-.5502-2.9346-1.6489-4.2451-1.0997-1.3089-2.5852-1.9644-4.4556-1.9644-1.8717 0-3.3681.6432-4.4908 1.9297-1.1227 1.287-1.6842 2.7012-1.6842 4.2451s.6075 2.9469 1.8244 4.2099z"/><path d="m201.4531 54.1002c-4.7256 0-8.643-1.7892-11.7534-5.3681-3.1117-3.5784-4.6663-7.94-4.6663-13.0863v-12.2796c0-1.1225.0353-1.9404.1052-2.4559.0702-.514.2687-1.1225.5965-1.8244.6547-1.263 2.4789-1.8944 5.4733-1.8944 3.2736 0 5.1923.889 5.7538 2.6664.2805.749.421 1.9419.421 3.5789v12.2791c0 1.919.5492 3.4154 1.6489 4.4908 1.0984 1.077 2.5721 1.6139 4.4206 1.6139 1.8474 0 3.3439-.5615 4.4908-1.6839 1.1457-1.123 1.7192-2.5964 1.7192-4.4209v-12.4196c0-1.0755.035-1.8827.1052-2.4207.07-.5375.2915-1.1582.6665-1.8597.6075-1.216 2.4089-1.8244 5.4031-1.8244 2.9472 0 4.7473.6315 5.4031 1.8944.3267.702.5262 1.3222.5962 1.8597.0702.5385.1052 1.3452.1052 2.4207v24.8397c0 1.0295-.035 1.8137-.1052 2.3507-.07.5385-.2927 1.1347-.6665 1.7897-.7017 1.217-2.5032 1.8239-5.4031 1.8239-2.8539 0-4.6081-.561-5.2626-1.6839-.4682-.795-.7017-1.7539-.7017-2.8769-.1875.328-.6085.796-1.263 1.4035-.6557.6085-1.2872 1.1225-1.8947 1.544-1.5907 1.0295-3.3219 1.5434-5.1923 1.5434z"/><path d="m227.8355 50.9428c-.8892-.5615-1.3332-1.4494-1.3332-2.6664 0-1.216.8882-3.0634 2.6664-5.5433.5142-.795 1.3442-1.193 2.4909-1.193 1.1457 0 2.7017.5732 4.6663 1.7192 1.9647 1.1465 3.7419 1.7192 5.3328 1.7192 2.8529 0 4.2804-.5615 4.2804-1.6845 0-.888-1.568-1.5434-4.7013-1.9644-2.9472-.421-5.8713-1.5199-8.7712-3.2979-1.3572-.842-2.4799-2.1632-3.3681-3.9646-.889-1.8004-1.3332-3.9406-1.3332-6.4205 0-7.3907 5.0753-11.0866 15.2267-11.0866 3.3209 0 6.7363.796 10.2447 2.3859 1.6369.7485 2.4559 1.6839 2.4559 2.8064s-.5152 2.5034-1.5437 4.1399c-1.0295 1.6385-2.0822 2.4559-3.1576 2.4559-.5615 0-1.603-.3505-3.1224-1.0525-1.5207-.7015-3.1697-1.0525-4.9471-1.0525-2.7607 0-4.1399.5155-4.1399 1.544 0 1.4035 1.5897 2.3154 4.7713 2.7364 3.0877.328 6.0808 1.217 8.9817 2.6664 1.3562.6555 2.4909 1.7892 3.4031 3.4031s1.3685 3.6381 1.3685 6.0695c0 2.4329-.4562 4.5031-1.3685 6.21-.9122 1.708-2.1872 2.9821-3.8241 3.8241-2.9942 1.4505-6.7483 2.1754-11.2621 2.1754s-8.8532-1.3089-13.0163-3.9294z"/><path d="m261.5636 8.964c.3286 0 .519.1128.5713.3379.0259.1035.0386.2656.0386.4863s-.043.396-.1294.5259c-.0869.1299-.2466.1943-.4805.1943h-.9082v2.9072c0 .355-.1128.5669-.3379.6362-.1211.0347-.2744.0518-.4604.0518s-.3374-.0195-.4541-.0586c-.1172-.0386-.2012-.0972-.2534-.1748-.0693-.1211-.1035-.2769-.1035-.4673v-2.8945h-.8955c-.3291 0-.5278-.1079-.5972-.3242-.0347-.1123-.0518-.2598-.0518-.4414s.0171-.3311.0518-.4478.0864-.1968.1558-.2397c.0952-.0605.2251-.0913.3892-.0913h3.4653zm4.6074.3247c.1558-.2163.3545-.3247.5972-.3247.2417 0 .4258.0264.5513.0781s.2144.1299.2661.2334c.0693.1733.104.3721.104.5972v3.543c0 .1558-.0088.2749-.0259.3569-.0176.0825-.0845.1582-.2012.2271-.1172.0693-.2988.104-.5454.104s-.4346-.0322-.5645-.0972-.2056-.1387-.2271-.2207c-.022-.082-.0327-.2012-.0327-.3569v-1.272c-.3457.519-.666.7788-.96.7788-.1387 0-.2856-.0649-.4414-.1948s-.2769-.2593-.3633-.3892l-.1299-.1948v1.2202c0 .2422-.0303.4067-.0908.4932-.104.1558-.355.2334-.7529.2334-.3721 0-.5972-.0693-.6748-.2075-.0605-.1123-.0908-.2725-.0908-.4805.0083-.813.0132-1.6611.0132-2.5435 0-.8828.0083-1.3691.0259-1.4604.0171-.0908.0928-.1899.2271-.2983.1338-.1079.2964-.1621.4868-.1621.3027 0 .5229.0693.6616.2075l.0649.0649 1.0771 1.5186 1.0254-1.4536z"/></g></svg>