<?xml version="1.0" encoding="UTF-8"?><svg id="Layer_2" xmlns="http://www.w3.org/2000/svg" width="822.3111" height="389.9682" viewBox="0 0 822.3111 389.9682"><defs><style>.cls-1{stroke-linejoin:round;}.cls-1,.cls-2{fill:none;stroke:#000;stroke-linecap:round;stroke-width:3px;}.cls-2{stroke-miterlimit:10;}</style></defs><g id="Layer_1-2"><line class="cls-2" x1="153.1325" y1="56.7327" x2="418.1047" y2="56.7327"/><line class="cls-2" x1="412.6378" y1="342.4222" x2="1.5" y2="342.4222"/><line class="cls-2" x1="7.2864" y1="231.5227" x2="418.1047" y2="231.5227"/><line class="cls-2" x1="23.8887" y1="131.8154" x2="418.1047" y2="131.8154"/><g><path d="M381.7217,108.3527c0,.8608-.2134,1.498-.6406,1.9111-.4268,.4131-.8994,.6191-1.417,.6191h-4.9775c0,.3921,.2314,.7212,.6934,.9873s.9238,.3989,1.3857,.3989c.812,0,1.4492-.084,1.9111-.252l.2314-.084c.3359-.1538,.6152-.231,.8398-.231,.4478,0,.8325,.3149,1.1548,.9448,.1821,.3779,.2729,.7002,.2729,.9658,0,1.2466-1.4912,1.8691-4.4727,1.8691-1.0361,0-1.957-.1782-2.7617-.5356-.8052-.3569-1.4316-.8291-1.8799-1.4175-.8818-1.1338-1.3228-2.4009-1.3228-3.8008,0-1.7642,.5703-3.1743,1.7114-4.2314s2.5654-1.5854,4.2734-1.5854c1.9463,0,3.374,.686,4.2842,2.0576,.4756,.7285,.7139,1.5229,.7139,2.3838Zm-4.4307,.6196c.5317,0,.7979-.2241,.7979-.6724,0-.3218-.123-.5806-.3672-.7769-.2451-.1958-.5957-.2939-1.0503-.2939-.4551,0-.9067,.1855-1.3545,.5566-.4482,.3711-.6724,.7661-.6724,1.1865h2.6465Z"/><path d="M392.7471,104.2682c.8257,.3643,1.2388,.8052,1.2388,1.3228,0,.252-.0562,.4902-.168,.7144s-.168,.3433-.168,.3569l-5.502,12.3057c-.1123,.2661-.2065,.4692-.2837,.6094-.0771,.1396-.1992,.2729-.3672,.3989s-.3779,.189-.6299,.189-.623-.105-1.1133-.3149c-.8262-.3643-1.2393-.7983-1.2393-1.3022,0-.3359,.6724-1.939,2.0166-4.8091l-4.1792-7.0347c-.2803-.4619-.4204-.8052-.4204-1.0293,0-.4478,.3784-.8955,1.1343-1.3438,.4761-.2798,.8472-.4199,1.1128-.4199,.2661,0,.4834,.0562,.6514,.168,.168,.1123,.29,.2275,.3672,.3462,.0771,.1191,.4619,.7705,1.1553,1.9531,.6929,1.1831,1.3545,2.2856,1.9844,3.3076,.0698-.2236,.4482-1.0884,1.1338-2.5938,.686-1.5044,1.0537-2.3062,1.1025-2.4043,.0488-.0977,.1294-.2168,.2417-.3569,.1821-.2378,.4375-.3569,.7666-.3569,.3286,0,.7173,.0981,1.1655,.2939Z"/><path d="M405.1787,108.3527c0,.8608-.2139,1.498-.6406,1.9111-.4272,.4131-.8994,.6191-1.4175,.6191h-4.9771c0,.3921,.2314,.7212,.6934,.9873s.9238,.3989,1.3857,.3989c.8115,0,1.4492-.084,1.9111-.252l.231-.084c.3359-.1538,.6157-.231,.8398-.231,.4478,0,.8325,.3149,1.1548,.9448,.1821,.3779,.2734,.7002,.2734,.9658,0,1.2466-1.4912,1.8691-4.4731,1.8691-1.0361,0-1.9565-.1782-2.7612-.5356-.8057-.3569-1.4316-.8291-1.8799-1.4175-.8818-1.1338-1.3232-2.4009-1.3232-3.8008,0-1.7642,.5703-3.1743,1.7119-4.2314,1.1406-1.0571,2.5654-1.5854,4.2734-1.5854,1.9458,0,3.374,.686,4.2842,2.0576,.4756,.7285,.7139,1.5229,.7139,2.3838Zm-4.4312,.6196c.5317,0,.7983-.2241,.7983-.6724,0-.3218-.123-.5806-.3677-.7769-.2451-.1958-.5952-.2939-1.0503-.2939s-.9062,.1855-1.3545,.5566-.6719,.7661-.6719,1.1865h2.646Z"/><path d="M406.628,114.2223c-.2666-.168-.3994-.4341-.3994-.7983,0-.3638,.2656-.9165,.7979-1.6587,.1543-.2383,.4023-.3569,.7461-.3569,.3428,0,.8081,.1714,1.3965,.5142,.5879,.3433,1.1196,.5146,1.5957,.5146,.8535,0,1.2812-.168,1.2812-.5039,0-.2661-.4697-.4619-1.4072-.5879-.8818-.1265-1.7568-.4551-2.625-.9873-.4062-.252-.7422-.6475-1.0078-1.1865-.2666-.5386-.3994-1.1792-.3994-1.9214,0-2.2119,1.519-3.3179,4.5571-3.3179,.9937,0,2.0161,.2383,3.0659,.7139,.4902,.2241,.7354,.5039,.7354,.8398s-.1543,.749-.4619,1.2393c-.3086,.4902-.6235,.7349-.9453,.7349-.168,0-.4795-.105-.9346-.3149s-.9482-.3149-1.4805-.3149c-.8262,0-1.2393,.1543-1.2393,.4619,0,.4199,.4761,.6929,1.4282,.8188,.9243,.0981,1.8198,.3643,2.688,.7983,.4062,.1958,.7456,.5352,1.0186,1.0181,.2729,.4834,.4092,1.0889,.4092,1.8169s-.1362,1.3477-.4092,1.8584c-.2729,.5112-.6543,.8926-1.1445,1.1445-.896,.4341-2.0195,.6509-3.3701,.6509-1.3516,0-2.6499-.3916-3.8955-1.1758Z"/></g><g><path d="M298.458,38.6686c0,.8608-.2134,1.498-.6406,1.9111-.4268,.4131-.8994,.6191-1.417,.6191h-4.9775c0,.3921,.2314,.7212,.6934,.9873s.9238,.3989,1.3857,.3989c.812,0,1.4492-.084,1.9111-.252l.2314-.084c.3359-.1538,.6152-.231,.8398-.231,.4478,0,.8325,.3149,1.1548,.9448,.1821,.3779,.2729,.7002,.2729,.9658,0,1.2466-1.4912,1.8691-4.4727,1.8691-1.0361,0-1.957-.1782-2.7617-.5356-.8052-.3569-1.4316-.8291-1.8799-1.4175-.8818-1.1338-1.3228-2.4009-1.3228-3.8008,0-1.7642,.5703-3.1743,1.7114-4.2314s2.5654-1.5854,4.2734-1.5854c1.9463,0,3.374,.686,4.2842,2.0576,.4756,.7285,.7139,1.5229,.7139,2.3838Zm-4.4307,.6196c.5317,0,.7979-.2241,.7979-.6724,0-.3218-.123-.5806-.3672-.7769-.2451-.1958-.5957-.2939-1.0503-.2939-.4551,0-.9067,.1855-1.3545,.5566-.4482,.3711-.6724,.7661-.6724,1.1865h2.6465Z"/><path d="M305.9761,34.4582c1.3999,0,2.5654,.5352,3.4966,1.6064,.9307,1.0708,1.3965,2.3765,1.3965,3.9165v3.6958c0,.3223-.0107,.564-.0312,.7246-.0215,.1611-.0811,.3398-.1787,.5356-.1963,.3779-.7422,.5669-1.6377,.5669-.9946,0-1.5684-.2588-1.7227-.7769-.084-.2383-.126-.5952-.126-1.0713v-3.6958c0-.5737-.1641-1.022-.4932-1.3442-.3291-.3218-.7705-.4829-1.3232-.4829s-1.001,.168-1.3438,.5039c-.3433,.3364-.5146,.7773-.5146,1.3232v3.7168c0,.3223-.0107,.564-.0312,.7246-.0215,.1611-.0879,.3398-.1997,.5356-.1821,.3779-.7212,.5669-1.6167,.5669-.8823,0-1.4214-.189-1.6172-.5669-.0981-.21-.1572-.3955-.1787-.5566-.0205-.1606-.0312-.4023-.0312-.7246v-7.4341c0-.3076,.0107-.542,.0312-.7031,.0215-.1611,.0874-.3394,.1997-.5356,.1958-.3496,.7349-.5249,1.6167-.5249,.854,0,1.3789,.1611,1.5752,.4829,.1396,.2383,.21,.5249,.21,.8608,.0557-.0977,.1816-.2378,.3779-.4199,.1963-.1816,.3848-.3286,.5674-.4409,.4756-.3218,1.0005-.4829,1.5747-.4829Z"/><path d="M323.0699,34.7101c.728,.4341,1.0923,.896,1.0923,1.3857,0,.2803-.1406,.6655-.4199,1.1553l-4.3477,7.4551c-.1396,.2383-.3643,.4512-.6719,.6401-.3076,.1895-.6123,.2837-.9131,.2837-.3018,0-.5879-.0732-.8613-.2207-.2729-.147-.4658-.2969-.5771-.4512l-.1895-.231-4.3677-7.4761c-.2803-.4619-.4204-.8398-.4204-1.1343,0-.5039,.3643-.9727,1.0923-1.4067,.5317-.3076,.9517-.4619,1.2603-.4619,.3076,0,.5488,.0942,.7246,.2832,.1748,.189,.3599,.4727,.5562,.8506l2.751,5.292,2.751-5.292c.1538-.2656,.2695-.4585,.3462-.5776,.0771-.1187,.2002-.2378,.3682-.3569,.168-.1187,.3916-.1782,.6719-.1782,.2798,0,.6646,.147,1.1548,.4409Z"/><path d="M328.771,32.4108c-.105,.2026-.2905,.3462-.5562,.4302-.2666,.084-.6201,.126-1.0605,.126-.4414,0-.7949-.042-1.0605-.126-.2666-.084-.4517-.231-.5566-.4409s-.168-.3955-.189-.5566c-.021-.1606-.0317-.4023-.0317-.7241,0-.3223,.0107-.5635,.0317-.7246s.0806-.3394,.1782-.5356c.1963-.3779,.7422-.5669,1.6382-.5669,.8823,0,1.4136,.189,1.5962,.5669,.1118,.21,.1782,.3955,.1992,.5566s.0312,.4023,.0312,.7246c0,.3218-.0103,.5635-.0312,.7241-.021,.1611-.084,.3433-.189,.5464Zm-3.4546,3.895c0-.3218,.0107-.563,.0317-.7241s.0806-.3467,.1782-.5566c.1963-.3638,.7422-.5459,1.6382-.5459,.6724,0,1.1479,.1191,1.4282,.3569,.2378,.1963,.3638,.4971,.3779,.9028,.0137,.1401,.0205,.3433,.0205,.6094v7.3496c0,.3223-.0103,.564-.0312,.7246-.021,.1611-.0874,.3467-.1992,.5566-.1826,.3643-.7217,.5459-1.6172,.5459-.8818,0-1.4209-.189-1.6172-.5669-.0977-.21-.1572-.3921-.1782-.5459-.021-.1543-.0317-.3994-.0317-.7354v-7.3711Z"/><path d="M338.1895,34.5842c.2656,.084,.4863,.2275,.6611,.4302,.1748,.2031,.2627,.5288,.2627,.9766,0,.4482-.1333,.9385-.3989,1.4702-.2661,.5322-.6509,.7979-1.1548,.7979-.252,0-.4937-.0557-.7246-.168-.2314-.1118-.5356-.168-.9136-.168-.3784,0-.7319,.1333-1.0605,.3989-.3291,.2661-.4937,.5879-.4937,.9663v4.4097c0,.3223-.0107,.564-.0312,.7246-.0215,.1611-.0879,.3467-.1997,.5566-.21,.3643-.7559,.5459-1.6382,.5459-.6719,0-1.1548-.1187-1.4487-.3569-.2241-.1958-.3501-.4971-.3779-.9028v-7.9805c0-.3218,.0103-.563,.0317-.7241,.0205-.1611,.0801-.3394,.1782-.5356,.1958-.3779,.7417-.5669,1.6382-.5669,.8398,0,1.3647,.1611,1.5747,.4829,.1538,.2241,.231,.4551,.231,.6929,.0703-.0977,.1714-.2168,.3047-.3569,.1328-.1396,.416-.3286,.8506-.5669,.4336-.2378,.8154-.3569,1.1445-.3569,.3286,0,.6055,.0176,.8291,.0522,.2236,.0352,.4688,.0947,.7354,.1787Z"/><path d="M341.087,35.8439c1.1763-1.0918,2.5205-1.6377,4.0322-1.6377s2.8486,.5425,4.0107,1.6274,1.7432,2.4673,1.7432,4.1475c0,1.1621-.3013,2.1943-.9028,3.0977-.6021,.9028-1.3335,1.5679-2.1948,1.9946-.8608,.4272-1.7529,.6406-2.6772,.6406s-1.8198-.2275-2.688-.6826c-.8682-.4546-1.5996-1.1265-2.1943-2.0156-.5957-.8892-.8926-1.8936-.8926-3.0137,0-1.6802,.5879-3.0659,1.7637-4.1582Zm2.625,5.6597c.4482,.3433,.9033,.5146,1.3652,.5146s.9238-.1753,1.3857-.5254c.4619-.3496,.6934-.8677,.6934-1.5537s-.2173-1.1973-.6514-1.5332c-.4336-.3359-.9028-.5039-1.4067-.5039-.5044,0-.9731,.1753-1.4067,.5249-.4346,.3501-.6514,.8647-.6514,1.5435,0,.6792,.2236,1.1904,.6719,1.5332Z"/><path d="M358.3907,34.4582c1.4004,0,2.5654,.5352,3.4971,1.6064,.9307,1.0708,1.3965,2.3765,1.3965,3.9165v3.6958c0,.3223-.0107,.564-.0317,.7246-.021,.1611-.0806,.3398-.1782,.5356-.1963,.3779-.7422,.5669-1.6382,.5669-.9946,0-1.5679-.2588-1.7222-.7769-.084-.2383-.126-.5952-.126-1.0713v-3.6958c0-.5737-.1646-1.022-.4932-1.3442-.3291-.3218-.7705-.4829-1.3232-.4829-.5532,0-1.001,.168-1.3438,.5039-.3438,.3364-.5146,.7773-.5146,1.3232v3.7168c0,.3223-.0107,.564-.0317,.7246-.021,.1611-.0874,.3398-.1997,.5356-.1816,.3779-.7207,.5669-1.6167,.5669-.8823,0-1.4214-.189-1.6167-.5669-.0986-.21-.1577-.3955-.1787-.5566-.021-.1606-.0312-.4023-.0312-.7246v-7.4341c0-.3076,.0103-.542,.0312-.7031s.0869-.3394,.1992-.5356c.1963-.3496,.7354-.5249,1.6172-.5249,.8535,0,1.3789,.1611,1.5752,.4829,.1396,.2383,.21,.5249,.21,.8608,.0557-.0977,.1816-.2378,.3779-.4199,.1958-.1816,.3848-.3286,.5669-.4409,.4761-.3218,1.0005-.4829,1.5747-.4829Z"/><path d="M368.5752,35.9279c.6582-.9937,1.4492-1.4907,2.373-1.4907,1.4282,0,2.4922,.6089,3.1924,1.8267,.1538-.21,.3389-.4302,.5566-.6611,.2168-.231,.5635-.4829,1.0391-.7563,.4761-.2729,.9663-.4092,1.4702-.4092,1.1196,0,2.0581,.4302,2.814,1.2915,.7559,.8608,1.1338,2.2856,1.1338,4.2734v3.6748c0,.3223-.0103,.564-.0312,.7246-.021,.1611-.0879,.3467-.1992,.5566-.1826,.3779-.7217,.5669-1.6172,.5669-.8818,0-1.4209-.1958-1.6172-.5879-.0981-.21-.1572-.3955-.1787-.5566-.0205-.1606-.0312-.4023-.0312-.7246v-3.6748c0-1.2183-.4341-1.8271-1.3018-1.8271-.4902,0-.8228,.1611-.998,.4829-.1748,.3223-.2622,.7773-.2622,1.3652v3.6748c0,.3359-.0103,.5811-.0317,.7354-.0205,.1538-.0874,.3359-.1992,.5459-.1963,.3779-.7422,.5669-1.6377,.5669-.8823,0-1.4214-.1958-1.6172-.5879-.0981-.21-.1577-.3955-.1787-.5566-.021-.1606-.0312-.4023-.0312-.7246v-3.6748c0-1.2183-.4346-1.8271-1.3022-1.8271-.8398,0-1.2603,.6089-1.2603,1.8271v3.7168c0,.3223-.0103,.564-.0312,.7246-.021,.1611-.0874,.3467-.1992,.5566-.21,.3643-.7559,.5459-1.6382,.5459s-1.4214-.189-1.6167-.5669c-.0986-.21-.1577-.3921-.1787-.5459-.021-.1543-.0312-.3994-.0312-.7354v-7.3921c0-.3218,.0103-.563,.0312-.7241s.0869-.3394,.1992-.5356c.21-.3779,.707-.5669,1.4912-.5669s1.2949,.126,1.5332,.3779c.2378,.252,.3564,.6162,.3564,1.0918Z"/><path d="M393.503,38.6686c0,.8608-.2139,1.498-.6406,1.9111-.4277,.4131-.8999,.6191-1.418,.6191h-4.9766c0,.3921,.231,.7212,.6929,.9873s.9243,.3989,1.3862,.3989c.8115,0,1.4487-.084,1.9106-.252l.231-.084c.3359-.1538,.6162-.231,.8398-.231,.4482,0,.833,.3149,1.1553,.9448,.1816,.3779,.2729,.7002,.2729,.9658,0,1.2466-1.4907,1.8691-4.4731,1.8691-1.0361,0-1.9561-.1782-2.7612-.5356-.8052-.3569-1.4316-.8291-1.8794-1.4175-.8818-1.1338-1.3232-2.4009-1.3232-3.8008,0-1.7642,.5703-3.1743,1.7119-4.2314,1.1406-1.0571,2.5649-1.5854,4.2734-1.5854,1.9453,0,3.3735,.686,4.2837,2.0576,.4761,.7285,.7144,1.5229,.7144,2.3838Zm-4.4316,.6196c.5322,0,.7983-.2241,.7983-.6724,0-.3218-.1226-.5806-.3677-.7769-.2451-.1958-.5947-.2939-1.0498-.2939s-.9067,.1855-1.3545,.5566c-.4482,.3711-.6719,.7661-.6719,1.1865h2.6455Z"/><path d="M401.0205,34.4582c1.3999,0,2.5654,.5352,3.4966,1.6064,.9312,1.0708,1.3965,2.3765,1.3965,3.9165v3.6958c0,.3223-.0103,.564-.0317,.7246-.0205,.1611-.0806,.3398-.1782,.5356-.1963,.3779-.7422,.5669-1.6382,.5669-.9941,0-1.5679-.2588-1.7217-.7769-.084-.2383-.126-.5952-.126-1.0713v-3.6958c0-.5737-.165-1.022-.4937-1.3442-.3291-.3218-.77-.4829-1.3228-.4829-.5537,0-1.0015,.168-1.3442,.5039-.3433,.3364-.5146,.7773-.5146,1.3232v3.7168c0,.3223-.0103,.564-.0317,.7246-.0205,.1611-.0869,.3398-.1992,.5356-.1821,.3779-.7212,.5669-1.6172,.5669-.8818,0-1.4209-.189-1.6167-.5669-.0981-.21-.1577-.3955-.1782-.5566-.0215-.1606-.0317-.4023-.0317-.7246v-7.4341c0-.3076,.0103-.542,.0317-.7031,.0205-.1611,.0869-.3394,.1992-.5356,.1958-.3496,.7349-.5249,1.6172-.5249,.8535,0,1.3789,.1611,1.5747,.4829,.1401,.2383,.21,.5249,.21,.8608,.0562-.0977,.1821-.2378,.3784-.4199,.1953-.1816,.3848-.3286,.5664-.4409,.4761-.3218,1.001-.4829,1.5752-.4829Z"/><path d="M413.8096,38.175l-1.3652-.084v2.8979c0,.3779,.0596,.6514,.1787,.8193,.1187,.168,.3428,.252,.6719,.252s.5811,.0103,.7559,.0312,.3604,.0879,.5566,.1997c.3223,.1821,.4834,.6509,.4834,1.4067,0,.8823-.1963,1.4214-.5884,1.6172-.21,.0981-.396,.1572-.5562,.1782-.1611,.021-.396,.0317-.7041,.0317-1.4561,0-2.5615-.3286-3.3174-.9868-.7563-.6582-1.1343-1.771-1.1343-3.3394v-3.1079c-.2661,.042-.5532,.063-.8608,.063-.3086,0-.564-.1187-.7666-.3569-.2031-.2378-.3047-.6436-.3047-1.2178s.0352-.9907,.105-1.2495c.0698-.2593,.168-.4443,.2944-.5566,.2236-.1816,.5039-.2729,.8398-.2729l.6929,.084v-2.1631c0-.3218,.0103-.5596,.0317-.7139,.0205-.1538,.0869-.3218,.1992-.5039,.1816-.3501,.7207-.5254,1.6172-.5254,.9517,0,1.5186,.2593,1.7007,.7773,.0698,.2241,.105,.5811,.105,1.0708v2.0581c.6162-.0557,1.0815-.084,1.3965-.084,.3154,0,.5527,.0103,.7139,.0312s.3467,.0879,.5566,.1997c.3643,.1821,.5459,.7212,.5459,1.6172,0,.8818-.1885,1.4209-.5664,1.6167-.2104,.0981-.396,.1577-.5566,.1787-.1611,.021-.4028,.0312-.7246,.0312Z"/></g><g><path d="M360.0664,209.8293c.6577-.9937,1.4487-1.4907,2.373-1.4907,1.4277,0,2.4917,.6089,3.1919,1.8267,.1538-.21,.3394-.4302,.5562-.6611s.5635-.4829,1.04-.7563c.4756-.2729,.9658-.4092,1.4697-.4092,1.1201,0,2.0581,.4302,2.814,1.2915,.7563,.8608,1.1343,2.2856,1.1343,4.2734v3.6748c0,.3223-.0107,.564-.0317,.7246-.021,.1611-.0874,.3467-.1997,.5566-.1816,.3779-.7207,.5669-1.6167,.5669-.8823,0-1.4214-.1958-1.6172-.5879-.0981-.21-.1577-.3955-.1782-.5566-.0215-.1606-.0317-.4023-.0317-.7246v-3.6748c0-1.2183-.4341-1.8271-1.3022-1.8271-.4902,0-.8223,.1611-.9971,.4829-.1753,.3223-.2627,.7773-.2627,1.3652v3.6748c0,.3359-.0107,.5811-.0312,.7354-.0215,.1538-.0879,.3359-.1997,.5459-.1963,.3779-.7422,.5669-1.6382,.5669-.8818,0-1.4209-.1958-1.6167-.5879-.0981-.21-.1577-.3955-.1787-.5566-.021-.1606-.0317-.4023-.0317-.7246v-3.6748c0-1.2183-.4336-1.8271-1.3018-1.8271-.8398,0-1.2598,.6089-1.2598,1.8271v3.7168c0,.3223-.0107,.564-.0317,.7246-.021,.1611-.0874,.3467-.1997,.5566-.21,.3643-.7559,.5459-1.6377,.5459s-1.4209-.189-1.6172-.5669c-.0977-.21-.1572-.3921-.1782-.5459-.021-.1543-.0317-.3994-.0317-.7354v-7.3921c0-.3218,.0107-.563,.0317-.7241s.0874-.3394,.1997-.5356c.21-.3779,.7065-.5669,1.4907-.5669,.7837,0,1.2944,.126,1.5327,.3779s.3574,.6162,.3574,1.0918Z"/><path d="M375.7745,209.7453c1.1758-1.0918,2.5195-1.6377,4.0317-1.6377s2.8486,.5425,4.0112,1.6274c1.1616,1.085,1.7427,2.4673,1.7427,4.1475,0,1.1621-.3013,2.1943-.9028,3.0977-.6025,.9028-1.334,1.5679-2.1943,1.9946-.8613,.4272-1.7539,.6406-2.6777,.6406s-1.8203-.2275-2.688-.6826c-.8682-.4546-1.5996-1.1265-2.1948-2.0156-.5947-.8892-.8926-1.8936-.8926-3.0137,0-1.6802,.5884-3.0659,1.7646-4.1582Zm2.625,5.6597c.4473,.3433,.9023,.5146,1.3647,.5146,.4619,0,.9238-.1753,1.3862-.5254,.4619-.3496,.6924-.8677,.6924-1.5537s-.2168-1.1973-.6504-1.5332c-.4346-.3359-.9033-.5039-1.4072-.5039s-.9736,.1753-1.4072,.5249c-.4336,.3501-.6509,.8647-.6509,1.5435,0,.6792,.2241,1.1904,.6724,1.5332Z"/><path d="M391.8389,219.3844c-1.4141,0-2.5864-.5356-3.5176-1.6064-.9312-1.0713-1.3965-2.3765-1.3965-3.9165v-3.6753c0-.3359,.0107-.5806,.0317-.7349,.021-.1538,.0806-.3359,.1782-.5459,.1963-.3779,.7422-.5669,1.6382-.5669,.98,0,1.5542,.2661,1.7222,.7979,.084,.2241,.126,.5811,.126,1.0708v3.6753c0,.5742,.1641,1.022,.4932,1.3438,.3291,.3223,.77,.4834,1.3232,.4834,.5527,0,1.001-.168,1.3438-.5044,.3428-.3359,.5146-.7769,.5146-1.3228v-3.7173c0-.3218,.0107-.563,.0312-.7241,.0215-.1611,.0879-.3467,.1997-.5566,.1821-.3638,.7212-.5459,1.6172-.5459,.8818,0,1.4204,.189,1.6167,.5669,.0977,.21,.1577,.3955,.1787,.5566s.0312,.4023,.0312,.7241v7.4341c0,.3081-.0103,.543-.0312,.7036-.021,.1611-.0879,.3398-.1992,.5356-.21,.3643-.749,.5459-1.6172,.5459-.8545,0-1.3789-.168-1.5752-.5039-.1396-.2378-.21-.5249-.21-.8613-.0562,.0981-.1821,.2383-.3779,.4204-.1963,.1821-.3853,.3359-.5669,.4619-.4761,.3081-.9946,.4619-1.5542,.4619Z"/><path d="M406.0772,212.0763l-1.3652-.084v2.8979c0,.3779,.0596,.6514,.1787,.8193,.1182,.168,.3428,.252,.6719,.252,.3286,0,.5806,.0103,.7559,.0312,.1748,.021,.3604,.0879,.5566,.1997,.3218,.1821,.4829,.6509,.4829,1.4067,0,.8823-.1963,1.4214-.5884,1.6172-.21,.0981-.3955,.1572-.5562,.1782-.1611,.021-.396,.0317-.7036,.0317-1.4561,0-2.562-.3286-3.3179-.9868-.7563-.6582-1.1343-1.771-1.1343-3.3394v-3.1079c-.2656,.042-.5527,.063-.8608,.063s-.564-.1187-.7666-.3569c-.2026-.2378-.3042-.6436-.3042-1.2178s.0347-.9907,.1045-1.2495c.0703-.2593,.168-.4443,.2944-.5566,.2236-.1816,.5039-.2729,.8398-.2729l.6929,.084v-2.1631c0-.3218,.0107-.5596,.0317-.7139,.021-.1538,.0874-.3218,.1997-.5039,.1816-.3501,.7207-.5254,1.6167-.5254,.9517,0,1.519,.2593,1.7007,.7773,.0703,.2241,.1055,.5811,.1055,1.0708v2.0581c.6157-.0557,1.0811-.084,1.3965-.084,.3149,0,.5527,.0103,.7139,.0312s.3467,.0879,.5566,.1997c.3638,.1821,.5459,.7212,.5459,1.6172,0,.8818-.189,1.4209-.5669,1.6167-.2104,.0981-.396,.1577-.5566,.1787-.1611,.021-.4028,.0312-.7241,.0312Z"/><path d="M415.2115,208.4015c1.3999,0,2.5654,.5322,3.4966,1.5957,.9307,1.0645,1.3965,2.3662,1.3965,3.9062v3.6958c0,.3223-.0107,.564-.0312,.7246-.0215,.1611-.0879,.3467-.1997,.5566-.1821,.3643-.7212,.5459-1.6167,.5459-.8545,0-1.3862-.1816-1.5967-.5459-.1118-.21-.1782-.3989-.1992-.5669s-.0312-.4204-.0312-.7563v-3.6748c0-.5737-.1611-1.022-.4834-1.3442-.3223-.3218-.7314-.4829-1.2285-.4829s-.9346,.1509-1.3125,.4517c-.3779,.3013-.5947,.6406-.6509,1.0186v4.0737c0,.3223-.0103,.564-.0317,.7246-.0205,.1611-.0869,.3467-.1992,.5566-.1821,.3643-.7212,.5459-1.6172,.5459-.8818,0-1.4209-.189-1.6167-.5669-.0981-.21-.1577-.3921-.1782-.5459-.0215-.1543-.0317-.3994-.0317-.7354v-12.5576c0-.3223,.0103-.5635,.0317-.7246,.0205-.1611,.0801-.3394,.1782-.5356,.1958-.3779,.7417-.5669,1.6382-.5669,.8818,0,1.4136,.189,1.5957,.5669,.1123,.21,.1787,.3955,.1992,.5566,.0215,.1611,.0317,.4023,.0317,.7246v4.6406c.6997-.8535,1.519-1.2808,2.457-1.2808Z"/></g><g><path d="M572.6612,157.6506c.752-1.1362,1.6562-1.7041,2.7119-1.7041,1.6318,0,2.8477,.6958,3.6484,2.0879,.1758-.2402,.3877-.4922,.6357-.7559,.248-.2642,.6436-.5522,1.188-.8643,.5435-.312,1.104-.4678,1.6802-.4678,1.2798,0,2.3516,.4917,3.2158,1.4761,.8643,.9839,1.2959,2.6118,1.2959,4.8838v4.2002c0,.3682-.0117,.644-.0361,.8276-.0234,.1841-.0996,.396-.2275,.6362-.208,.4321-.8242,.6479-1.8481,.6479-1.0083,0-1.6245-.2236-1.8481-.6719-.1123-.2402-.1797-.4521-.2041-.6362-.0239-.1836-.0361-.4595-.0361-.8281v-4.1997c0-1.3921-.4961-2.0879-1.4878-2.0879-.5601,0-.9399,.1841-1.1401,.5518-.2002,.3682-.2998,.8882-.2998,1.5601v4.2002c0,.3838-.0117,.6641-.0361,.8398-.0239,.1763-.0996,.3838-.2275,.624-.2246,.4321-.8486,.6479-1.8721,.6479-1.0083,0-1.624-.2236-1.8481-.6719-.1118-.2402-.1802-.4521-.2041-.6362-.0239-.1836-.0356-.4595-.0356-.8281v-4.1997c0-1.3921-.4961-2.0879-1.4883-2.0879-.96,0-1.4399,.6958-1.4399,2.0879v4.248c0,.3682-.0122,.644-.0361,.8281s-.1001,.396-.228,.6357c-.2402,.4165-.8643,.624-1.8721,.624s-1.624-.2158-1.8477-.6479c-.1123-.2402-.1802-.4478-.2041-.624-.0244-.1758-.0361-.4561-.0361-.8398v-8.4482c0-.3677,.0117-.644,.0361-.8281,.0239-.1836,.0996-.3877,.228-.6118,.2397-.4321,.8076-.6479,1.7036-.6479,.8965,0,1.48,.144,1.752,.4321,.2725,.2876,.4082,.7041,.4082,1.248Z"/><path d="M590.6133,157.5544c1.3438-1.248,2.8799-1.8721,4.6079-1.8721s3.2554,.6201,4.584,1.8599c1.3276,1.2402,1.9917,2.8203,1.9917,4.7402,0,1.3281-.3438,2.5078-1.0317,3.54-.688,1.0317-1.5239,1.792-2.5083,2.2798-.9839,.4883-2.0039,.7319-3.0596,.7319s-2.0801-.2598-3.0723-.7798-1.8281-1.2876-2.5078-2.3042c-.6807-1.0156-1.02-2.1636-1.02-3.4438,0-1.9199,.6719-3.5039,2.0161-4.752Zm3,6.4678c.5117,.3926,1.0317,.5884,1.5596,.5884,.5283,0,1.0562-.2002,1.584-.6001,.5283-.3999,.792-.9922,.792-1.7759,0-.7842-.248-1.3682-.7437-1.7524-.4966-.3838-1.0322-.5757-1.6079-.5757-.5762,0-1.1123,.2002-1.6084,.6001s-.7441,.9878-.7441,1.7637c0,.7764,.2559,1.3604,.7686,1.752Z"/><path d="M611.8409,150.7023c.1201-.2319,.332-.396,.6362-.4922,.3037-.0957,.708-.1436,1.2119-.1436s.9077,.0479,1.2119,.1436c.3042,.0962,.5161,.2642,.6362,.5044,.1201,.2397,.1919,.4521,.2158,.6357,.0239,.1841,.0361,.46,.0361,.8281v14.3281c0,.3682-.0122,.644-.0361,.8276-.0239,.1841-.1001,.3882-.228,.6123-.2397,.4316-.916,.6479-2.0278,.6479s-1.7324-.3921-1.8604-1.1763c-.6719,.7681-1.6074,1.1523-2.8076,1.1523-1.4404,0-2.752-.6279-3.936-1.8843-1.1841-1.2559-1.7759-2.7197-1.7759-4.3921,0-1.6714,.5957-3.1396,1.7881-4.4038,1.1914-1.2637,2.4995-1.896,3.9238-1.896,1.1836,0,2.1035,.4004,2.7598,1.2002v-5.04c0-.3682,.0122-.644,.0361-.8281,.0239-.1836,.0957-.3921,.2158-.624Zm-3.8999,13.0439c.416,.4321,.9199,.6479,1.5122,.6479,.5918,0,1.0835-.2158,1.4756-.6479s.5884-.9077,.5884-1.4277-.1885-1.0039-.564-1.4521c-.376-.4478-.8848-.6719-1.5244-.6719s-1.1519,.2197-1.5356,.6597c-.3843,.4404-.5762,.9243-.5762,1.4521s.2075,1.0078,.624,1.4399Z"/><path d="M623.3247,168.5705c-1.6162,0-2.9561-.6123-4.02-1.8359-1.0645-1.2241-1.5957-2.7158-1.5957-4.4761v-4.2002c0-.3838,.0117-.6636,.0361-.8398,.0234-.1758,.0918-.3843,.2036-.624,.2241-.4321,.8481-.6479,1.8721-.6479,1.1196,0,1.7759,.3042,1.9683,.9121,.0957,.2559,.1436,.6641,.1436,1.2236v4.2002c0,.6562,.188,1.168,.5645,1.5361,.3755,.3682,.8794,.5518,1.5117,.5518,.6318,0,1.1436-.1919,1.5361-.5762,.3916-.3838,.5879-.8877,.5879-1.5117v-4.248c0-.3677,.0117-.644,.0361-.8281,.0239-.1836,.0996-.396,.2275-.6357,.208-.416,.8242-.624,1.8486-.624,1.0078,0,1.623,.2158,1.8477,.6479,.1118,.2397,.1797,.4521,.2041,.6357,.0239,.1841,.0361,.4604,.0361,.8281v8.4961c0,.3521-.0122,.6201-.0361,.8042-.0244,.1841-.1006,.3877-.228,.6118-.2397,.416-.856,.624-1.8481,.624-.9761,0-1.5762-.1919-1.7998-.5762-.1602-.272-.2402-.6001-.2402-.9839-.064,.1123-.208,.2725-.4316,.48-.2246,.208-.4404,.3838-.6484,.5278-.5439,.3525-1.1357,.5283-1.7759,.5283Z"/><path d="M632.3487,167.4904c-.3042-.1919-.4561-.4956-.4561-.9121,0-.416,.3037-1.0479,.9121-1.896,.1758-.272,.4595-.4082,.8516-.4082s.9243,.1963,1.5962,.5884c.6724,.3921,1.2798,.5879,1.8237,.5879,.9761,0,1.4644-.1919,1.4644-.5762,0-.3037-.5366-.5278-1.6079-.6719-1.0078-.144-2.0083-.5195-3-1.1279-.4644-.2881-.8486-.7397-1.1523-1.356-.3037-.6157-.4561-1.3477-.4561-2.1963,0-2.5278,1.7363-3.792,5.208-3.792,1.1362,0,2.3042,.2725,3.5039,.8164,.5605,.2559,.8403,.5757,.8403,.96,0,.3838-.1763,.856-.5278,1.416-.3525,.5601-.7119,.8398-1.0801,.8398-.1924,0-.5483-.1201-1.0684-.3599-.5195-.2402-1.084-.3604-1.6914-.3604-.9443,0-1.416,.1763-1.416,.5283,0,.48,.5435,.792,1.6318,.936,1.0557,.1118,2.0796,.416,3.0718,.9116,.4639,.2246,.8521,.6123,1.1641,1.1641,.312,.5522,.4683,1.2441,.4683,2.0762s-.1562,1.54-.4683,2.124-.748,1.02-1.3081,1.3081c-1.0239,.4961-2.3081,.7437-3.8516,.7437-1.5444,0-3.0283-.4478-4.4521-1.3438Z"/></g><g><path d="M543.5723,242.2219c0,.5952,.1963,1.0576,.5884,1.3862,.3916,.3291,.8081,.4937,1.2495,.4937,.4409,0,.8535-.1294,1.2393-.3887,.3848-.2588,.6963-.3887,.9341-.3887,.4204,0,.9312,.3711,1.5332,1.1133,.3218,.4062,.4829,.77,.4829,1.0918,0,.5322-.3853,1.0293-1.1553,1.4912-.7979,.5601-1.7778,.8398-2.9395,.8398-1.3022,0-2.5557-.4688-3.7593-1.4067-.5742-.4482-1.0435-1.0469-1.4067-1.7959-.3643-.7485-.5464-1.5747-.5464-2.478,0-.9028,.1821-1.7217,.5464-2.457,.3633-.7349,.8325-1.3262,1.4067-1.7744,1.1616-.9238,2.4009-1.3857,3.7173-1.3857,.5312,0,1.0498,.0732,1.5537,.2202s.875,.291,1.1133,.4307l.3359,.21c.252,.168,.4478,.3013,.5879,.3989,.3638,.2803,.5459,.5986,.5459,.9556s-.147,.7598-.4409,1.2075c-.5044,.77-.9868,1.1548-1.4492,1.1548-.2661,0-.644-.1538-1.1338-.4619-.2524-.2378-.6128-.3569-1.0815-.3569-.4692,0-.9067,.168-1.3125,.5039-.4062,.3359-.6094,.8018-.6094,1.3965Z"/><path d="M552.4136,238.0744c1.1763-1.0918,2.52-1.6377,4.0317-1.6377s2.8486,.5425,4.0112,1.6274c1.1616,1.085,1.7427,2.4673,1.7427,4.1475,0,1.1621-.3008,2.1943-.9023,3.0977-.6025,.9028-1.334,1.5679-2.1948,1.9946-.8608,.4272-1.7534,.6406-2.6772,.6406-.9243,0-1.8203-.2275-2.6885-.6826-.8682-.4546-1.5996-1.1265-2.1943-2.0156-.5952-.8892-.8926-1.8936-.8926-3.0137,0-1.6802,.5879-3.0659,1.7642-4.1582Zm2.625,5.6597c.4478,.3433,.9028,.5146,1.3647,.5146s.9238-.1753,1.3862-.5254c.4619-.3496,.6929-.8677,.6929-1.5537s-.2168-1.1973-.6509-1.5332-.9028-.5039-1.4067-.5039c-.5044,0-.9736,.1753-1.4072,.5249-.4341,.3501-.6514,.8647-.6514,1.5435,0,.6792,.2241,1.1904,.6724,1.5332Z"/><path d="M571.0821,236.8146c.2661,.084,.4863,.2275,.6621,.4302,.1748,.2031,.2622,.5288,.2622,.9766,0,.4482-.1333,.9385-.3989,1.4702-.2661,.5322-.6514,.7979-1.1553,.7979-.252,0-.4932-.0557-.7246-.168-.2305-.1118-.5352-.168-.9131-.168s-.7314,.1333-1.0605,.3989c-.3291,.2661-.4937,.5879-.4937,.9663v4.4097c0,.3223-.0103,.564-.0317,.7246-.0205,.1611-.0869,.3467-.1992,.5566-.21,.3643-.7559,.5459-1.6377,.5459-.6719,0-1.1553-.1187-1.4492-.3569-.2241-.1958-.3501-.4971-.3779-.9028v-7.9805c0-.3218,.0107-.563,.0312-.7241,.0215-.1611,.0806-.3394,.1787-.5356,.1958-.3779,.7422-.5669,1.6377-.5669,.8403,0,1.3652,.1611,1.5752,.4829,.1543,.2241,.231,.4551,.231,.6929,.0698-.0977,.1714-.2168,.3047-.3569,.1328-.1396,.4165-.3286,.8501-.5669,.4341-.2378,.8154-.3569,1.1445-.3569s.6055,.0176,.8301,.0522c.2236,.0352,.4688,.0947,.7344,.1787Z"/><path d="M583.1993,240.8991c0,.8608-.2139,1.498-.6406,1.9111-.4272,.4131-.8994,.6191-1.4175,.6191h-4.9771c0,.3921,.2314,.7212,.6934,.9873s.9238,.3989,1.3857,.3989c.8115,0,1.4492-.084,1.9111-.252l.231-.084c.3359-.1538,.6157-.231,.8398-.231,.4478,0,.8325,.3149,1.1548,.9448,.1821,.3779,.2734,.7002,.2734,.9658,0,1.2466-1.4912,1.8691-4.4731,1.8691-1.0361,0-1.9565-.1782-2.7612-.5356-.8057-.3569-1.4316-.8291-1.8799-1.4175-.8818-1.1338-1.3232-2.4009-1.3232-3.8008,0-1.7642,.5703-3.1743,1.7119-4.2314,1.1406-1.0571,2.5654-1.5854,4.2734-1.5854,1.9458,0,3.374,.686,4.2842,2.0576,.4756,.7285,.7139,1.5229,.7139,2.3838Zm-4.4312,.6196c.5317,0,.7983-.2241,.7983-.6724,0-.3218-.123-.5806-.3677-.7769-.2451-.1958-.5952-.2939-1.0503-.2939s-.9062,.1855-1.3545,.5566-.6719,.7661-.6719,1.1865h2.646Z"/><path d="M600.545,240.8991c0,.8608-.2139,1.498-.6406,1.9111-.4272,.4131-.8994,.6191-1.4175,.6191h-4.9771c0,.3921,.2314,.7212,.6934,.9873s.9238,.3989,1.3857,.3989c.8115,0,1.4492-.084,1.9111-.252l.231-.084c.3359-.1538,.6157-.231,.8398-.231,.4478,0,.8325,.3149,1.1548,.9448,.1821,.3779,.2734,.7002,.2734,.9658,0,1.2466-1.4912,1.8691-4.4731,1.8691-1.0361,0-1.9565-.1782-2.7612-.5356-.8057-.3569-1.4316-.8291-1.8799-1.4175-.8818-1.1338-1.3232-2.4009-1.3232-3.8008,0-1.7642,.5703-3.1743,1.7119-4.2314,1.1406-1.0571,2.5654-1.5854,4.2734-1.5854,1.9458,0,3.374,.686,4.2842,2.0576,.4756,.7285,.7139,1.5229,.7139,2.3838Zm-4.4312,.6196c.5317,0,.7983-.2241,.7983-.6724,0-.3218-.123-.5806-.3677-.7769-.2451-.1958-.5952-.2939-1.0503-.2939s-.9062,.1855-1.3545,.5566-.6719,.7661-.6719,1.1865h2.646Z"/><path d="M605.5215,238.1584c.6582-.9937,1.4492-1.4907,2.373-1.4907,1.4282,0,2.4922,.6089,3.1924,1.8267,.1538-.21,.3389-.4302,.5566-.6611,.2168-.231,.5635-.4829,1.0391-.7563,.4761-.2729,.9663-.4092,1.4702-.4092,1.1196,0,2.0581,.4302,2.814,1.2915,.7559,.8608,1.1338,2.2856,1.1338,4.2734v3.6748c0,.3223-.0103,.564-.0312,.7246-.021,.1611-.0879,.3467-.1992,.5566-.1826,.3779-.7217,.5669-1.6172,.5669-.8818,0-1.4209-.1958-1.6172-.5879-.0981-.21-.1572-.3955-.1787-.5566-.0205-.1606-.0312-.4023-.0312-.7246v-3.6748c0-1.2183-.4341-1.8271-1.3018-1.8271-.4902,0-.8228,.1611-.998,.4829-.1748,.3223-.2622,.7773-.2622,1.3652v3.6748c0,.3359-.0103,.5811-.0317,.7354-.0205,.1538-.0874,.3359-.1992,.5459-.1963,.3779-.7422,.5669-1.6377,.5669-.8823,0-1.4214-.1958-1.6172-.5879-.0981-.21-.1577-.3955-.1787-.5566-.021-.1606-.0312-.4023-.0312-.7246v-3.6748c0-1.2183-.4346-1.8271-1.3022-1.8271-.8398,0-1.2603,.6089-1.2603,1.8271v3.7168c0,.3223-.0103,.564-.0312,.7246-.021,.1611-.0874,.3467-.1992,.5566-.21,.3643-.7559,.5459-1.6382,.5459s-1.4214-.189-1.6167-.5669c-.0986-.21-.1577-.3921-.1787-.5459-.021-.1543-.0312-.3994-.0312-.7354v-7.3921c0-.3218,.0103-.563,.0312-.7241s.0869-.3394,.1992-.5356c.21-.3779,.707-.5669,1.4912-.5669s1.2949,.126,1.5332,.3779c.2378,.252,.3564,.6162,.3564,1.0918Z"/><path d="M621.2295,238.0744c1.1763-1.0918,2.5205-1.6377,4.0322-1.6377s2.8486,.5425,4.0107,1.6274,1.7432,2.4673,1.7432,4.1475c0,1.1621-.3013,2.1943-.9028,3.0977-.6021,.9028-1.3335,1.5679-2.1948,1.9946-.8608,.4272-1.7529,.6406-2.6772,.6406s-1.8198-.2275-2.688-.6826c-.8682-.4546-1.5996-1.1265-2.1943-2.0156-.5957-.8892-.8926-1.8936-.8926-3.0137,0-1.6802,.5879-3.0659,1.7637-4.1582Zm2.625,5.6597c.4482,.3433,.9033,.5146,1.3652,.5146s.9238-.1753,1.3857-.5254c.4619-.3496,.6934-.8677,.6934-1.5537s-.2173-1.1973-.6514-1.5332c-.4336-.3359-.9028-.5039-1.4067-.5039-.5044,0-.9731,.1753-1.4067,.5249-.4346,.3501-.6514,.8647-.6514,1.5435,0,.6792,.2236,1.1904,.6719,1.5332Z"/><path d="M638.4917,240.4054l-1.3652-.084v2.8979c0,.3779,.0596,.6514,.1787,.8193,.1187,.168,.3428,.252,.6719,.252,.3286,0,.5806,.0103,.7563,.0312,.1748,.021,.3599,.0879,.5562,.1997,.3218,.1821,.4829,.6509,.4829,1.4067,0,.8823-.1963,1.4214-.5879,1.6172-.21,.0981-.3955,.1572-.5566,.1782s-.3955,.0317-.7031,.0317c-1.4565,0-2.5625-.3286-3.3184-.9868s-1.1338-1.771-1.1338-3.3394v-3.1079c-.2661,.042-.5532,.063-.8613,.063-.3076,0-.5635-.1187-.7666-.3569-.2026-.2378-.3042-.6436-.3042-1.2178s.0347-.9907,.105-1.2495c.0703-.2593,.168-.4443,.2939-.5566,.2236-.1816,.5039-.2729,.8398-.2729l.6934,.084v-2.1631c0-.3218,.0107-.5596,.0312-.7139,.0215-.1538,.0874-.3218,.1997-.5039,.1816-.3501,.7212-.5254,1.6167-.5254,.9521,0,1.519,.2593,1.7012,.7773,.0703,.2241,.105,.5811,.105,1.0708v2.0581c.6157-.0557,1.0815-.084,1.397-.084,.3145,0,.5527,.0103,.7139,.0312,.1606,.021,.3462,.0879,.5566,.1997,.3633,.1821,.5459,.7212,.5459,1.6172,0,.8818-.1895,1.4209-.5674,1.6167-.21,.0981-.3955,.1577-.5566,.1787s-.4023,.0312-.7241,.0312Z"/><path d="M644.9488,234.6413c-.105,.2026-.2905,.3462-.5562,.4302-.2666,.084-.6201,.126-1.0605,.126-.4414,0-.7949-.042-1.0605-.126-.2666-.084-.4517-.231-.5566-.4409s-.168-.3955-.189-.5566c-.021-.1606-.0317-.4023-.0317-.7241,0-.3223,.0107-.5635,.0317-.7246s.0806-.3394,.1782-.5356c.1963-.3779,.7422-.5669,1.6382-.5669,.8823,0,1.4136,.189,1.5962,.5669,.1118,.21,.1782,.3955,.1992,.5566s.0312,.4023,.0312,.7246c0,.3218-.0103,.5635-.0312,.7241-.021,.1611-.084,.3433-.189,.5464Zm-3.4546,3.895c0-.3218,.0107-.563,.0317-.7241s.0806-.3467,.1782-.5566c.1963-.3638,.7422-.5459,1.6382-.5459,.6724,0,1.1479,.1191,1.4282,.3569,.2378,.1963,.3638,.4971,.3779,.9028,.0137,.1401,.0205,.3433,.0205,.6094v7.3496c0,.3223-.0103,.564-.0312,.7246-.021,.1611-.0874,.3467-.1992,.5566-.1826,.3643-.7217,.5459-1.6172,.5459-.8818,0-1.4209-.189-1.6172-.5669-.0977-.21-.1572-.3921-.1782-.5459-.021-.1543-.0317-.3994-.0317-.7354v-7.3711Z"/><path d="M648.2979,238.0744c1.1763-1.0918,2.5205-1.6377,4.0322-1.6377s2.8486,.5425,4.0107,1.6274,1.7432,2.4673,1.7432,4.1475c0,1.1621-.3013,2.1943-.9028,3.0977-.6021,.9028-1.3335,1.5679-2.1948,1.9946-.8608,.4272-1.7529,.6406-2.6772,.6406s-1.8198-.2275-2.688-.6826c-.8682-.4546-1.5996-1.1265-2.1943-2.0156-.5957-.8892-.8926-1.8936-.8926-3.0137,0-1.6802,.5879-3.0659,1.7637-4.1582Zm2.625,5.6597c.4482,.3433,.9033,.5146,1.3652,.5146s.9238-.1753,1.3857-.5254c.4619-.3496,.6934-.8677,.6934-1.5537s-.2173-1.1973-.6514-1.5332c-.4336-.3359-.9028-.5039-1.4067-.5039-.5044,0-.9731,.1753-1.4067,.5249-.4346,.3501-.6514,.8647-.6514,1.5435,0,.6792,.2236,1.1904,.6719,1.5332Z"/><path d="M665.6016,236.6886c1.4004,0,2.5654,.5352,3.4971,1.6064,.9307,1.0708,1.3965,2.3765,1.3965,3.9165v3.6958c0,.3223-.0107,.564-.0317,.7246-.021,.1611-.0806,.3398-.1782,.5356-.1963,.3779-.7422,.5669-1.6382,.5669-.9946,0-1.5679-.2588-1.7222-.7769-.084-.2383-.126-.5952-.126-1.0713v-3.6958c0-.5737-.1646-1.022-.4932-1.3442-.3291-.3218-.7705-.4829-1.3232-.4829-.5532,0-1.001,.168-1.3438,.5039-.3438,.3364-.5146,.7773-.5146,1.3232v3.7168c0,.3223-.0107,.564-.0317,.7246-.021,.1611-.0874,.3398-.1997,.5356-.1816,.3779-.7207,.5669-1.6167,.5669-.8823,0-1.4214-.189-1.6167-.5669-.0986-.21-.1577-.3955-.1787-.5566-.021-.1606-.0312-.4023-.0312-.7246v-7.4341c0-.3076,.0103-.542,.0312-.7031s.0869-.3394,.1992-.5356c.1963-.3496,.7354-.5249,1.6172-.5249,.8535,0,1.3789,.1611,1.5752,.4829,.1396,.2383,.21,.5249,.21,.8608,.0557-.0977,.1816-.2378,.3779-.4199,.1958-.1816,.3848-.3286,.5669-.4409,.4761-.3218,1.0005-.4829,1.5747-.4829Z"/></g><g><path d="M304.044,314.8932c1.2456,0,2.3901,.5532,3.4336,1.6587,1.0425,1.1064,1.5645,2.3911,1.5645,3.8535,0,1.4634-.5186,2.7441-1.5542,3.8433-1.0361,1.0991-2.1489,1.6484-3.3394,1.6484-1.1895,0-2.0366-.3359-2.541-1.0078-.1118,.686-.7139,1.0288-1.8057,1.0288-.8818,0-1.4209-.189-1.6172-.5669-.0977-.21-.1572-.3955-.1782-.5566-.021-.1606-.0317-.4023-.0317-.7246v-12.5366c0-.3223,.0107-.5635,.0317-.7246s.0806-.3394,.1782-.5356c.1963-.3779,.7422-.5669,1.6382-.5669,.8823,0,1.4136,.189,1.5962,.5669,.1118,.21,.1782,.3955,.1992,.5566s.0312,.4023,.0312,.7246v4.3677c.5601-.6855,1.3584-1.0288,2.3945-1.0288Zm-1.8379,6.7827c.3428,.3784,.7734,.5674,1.292,.5674,.5176,0,.9585-.189,1.3228-.5674,.3638-.3779,.5459-.7979,.5459-1.2598s-.168-.8853-.5039-1.2705c-.3359-.3848-.7842-.5776-1.3442-.5776-.5596,0-1.0044,.1963-1.333,.5879-.3291,.3921-.4941,.8159-.4941,1.2705,0,.4551,.1719,.8716,.5146,1.2495Z"/><path d="M311.8555,316.258c1.1763-1.0918,2.5205-1.6377,4.0322-1.6377s2.8486,.5425,4.0107,1.6274,1.7432,2.4673,1.7432,4.1475c0,1.1621-.3013,2.1943-.9028,3.0977-.6021,.9028-1.3335,1.5679-2.1948,1.9946-.8608,.4272-1.7529,.6406-2.6772,.6406s-1.8198-.2275-2.688-.6826c-.8682-.4546-1.5996-1.1265-2.1943-2.0156-.5957-.8892-.8926-1.8936-.8926-3.0137,0-1.6802,.5879-3.0659,1.7637-4.1582Zm2.625,5.6597c.4482,.3433,.9033,.5146,1.3652,.5146s.9238-.1753,1.3857-.5254c.4619-.3496,.6934-.8677,.6934-1.5537s-.2173-1.1973-.6514-1.5332c-.4336-.3359-.9028-.5039-1.4067-.5039-.5044,0-.9731,.1753-1.4067,.5249-.4346,.3501-.6514,.8647-.6514,1.5435,0,.6792,.2236,1.1904,.6719,1.5332Z"/><path d="M330.4297,310.2629c.1055-.2031,.291-.3467,.5566-.4307s.6196-.126,1.0605-.126c.4414,0,.7944,.042,1.0605,.126,.2656,.084,.4517,.231,.5566,.4409s.168,.3955,.189,.5566,.0317,.4023,.0317,.7246v12.5366c0,.3223-.0107,.564-.0317,.7246-.021,.1611-.0874,.3398-.1997,.5356-.21,.3779-.8018,.5669-1.7744,.5669-.9731,0-1.5156-.3428-1.6274-1.0288-.5879,.6719-1.4067,1.0078-2.457,1.0078-1.2603,0-2.4077-.5493-3.4438-1.6484s-1.5542-2.3799-1.5542-3.8433c0-1.4624,.5215-2.7471,1.5649-3.8535,1.0425-1.1055,2.187-1.6587,3.4331-1.6587,1.0356,0,1.8408,.3501,2.415,1.0498v-4.4097c0-.3223,.0103-.5635,.0317-.7246,.0205-.1611,.084-.3433,.1885-.5459Zm-3.4121,11.4131c.3638,.3784,.8047,.5674,1.3232,.5674,.5176,0,.9482-.189,1.291-.5674,.3428-.3779,.5146-.7944,.5146-1.2495,0-.4546-.165-.8784-.4932-1.2705-.3291-.3916-.7739-.5879-1.334-.5879s-1.0078,.1929-1.3438,.5776c-.3359,.3853-.5039,.8086-.5039,1.2705s.1816,.8818,.5459,1.2598Z"/><path d="M345.6446,314.9982c.8257,.3643,1.2388,.8052,1.2388,1.3228,0,.252-.0562,.4902-.168,.7144s-.168,.3433-.168,.3569l-5.502,12.3057c-.1123,.2661-.2065,.4692-.2837,.6094-.0771,.1396-.1992,.2729-.3672,.3989s-.3779,.189-.6299,.189-.623-.105-1.1133-.3149c-.8262-.3643-1.2393-.7983-1.2393-1.3022,0-.3359,.6724-1.939,2.0166-4.8091l-4.1792-7.0347c-.2803-.4619-.4204-.8052-.4204-1.0293,0-.4478,.3784-.8955,1.1343-1.3438,.4761-.2798,.8472-.4199,1.1128-.4199,.2661,0,.4834,.0562,.6514,.168,.168,.1123,.29,.2275,.3672,.3462,.0771,.1191,.4619,.7705,1.1553,1.9531,.6929,1.1831,1.3545,2.2856,1.9844,3.3076,.0698-.2236,.4482-1.0884,1.1338-2.5938,.686-1.5044,1.0537-2.3062,1.1025-2.4043,.0488-.0977,.1294-.2168,.2417-.3569,.1821-.2378,.4375-.3569,.7666-.3569,.3286,0,.7173,.0981,1.1655,.2939Z"/><path d="M353.4351,324.9523c-.2661-.168-.3989-.4341-.3989-.7983,0-.3638,.2656-.9165,.7979-1.6587,.1538-.2383,.4023-.3569,.7456-.3569,.3428,0,.8081,.1714,1.3965,.5142,.5879,.3433,1.1196,.5146,1.5962,.5146,.8535,0,1.2808-.168,1.2808-.5039,0-.2661-.4692-.4619-1.4067-.5879-.8823-.1265-1.7573-.4551-2.625-.9873-.4062-.252-.7422-.6475-1.0083-1.1865-.2661-.5386-.3989-1.1792-.3989-1.9214,0-2.2119,1.5186-3.3179,4.5566-3.3179,.9941,0,2.0166,.2383,3.0664,.7139,.4897,.2241,.7349,.5039,.7349,.8398s-.1543,.749-.4619,1.2393c-.3081,.4902-.6235,.7349-.9448,.7349-.168,0-.48-.105-.9346-.3149-.4551-.21-.9487-.3149-1.4805-.3149-.8262,0-1.2393,.1543-1.2393,.4619,0,.4199,.4756,.6929,1.4277,.8188,.9243,.0981,1.8203,.3643,2.6885,.7983,.4058,.1958,.7451,.5352,1.0186,1.0181,.2725,.4834,.4092,1.0889,.4092,1.8169s-.1367,1.3477-.4092,1.8584c-.2734,.5112-.6548,.8926-1.1445,1.1445-.8965,.4341-2.0195,.6509-3.3706,.6509s-2.6499-.3916-3.8955-1.1758Z"/><path d="M369.71,318.589l-1.3652-.084v2.8979c0,.3779,.0596,.6514,.1787,.8193s.3428,.252,.6719,.252,.5811,.0103,.7563,.0312c.1748,.021,.3599,.0879,.5562,.1997,.3223,.1821,.4834,.6509,.4834,1.4067,0,.8823-.1963,1.4214-.5879,1.6172-.21,.0981-.396,.1572-.5566,.1782-.1611,.021-.3955,.0317-.7036,.0317-1.4565,0-2.562-.3286-3.3179-.9868s-1.1338-1.771-1.1338-3.3394v-3.1079c-.2666,.042-.5537,.063-.8613,.063-.3081,0-.5635-.1187-.7666-.3569-.2031-.2378-.3047-.6436-.3047-1.2178s.0352-.9907,.1055-1.2495c.0698-.2593,.168-.4443,.2939-.5566,.2236-.1816,.5039-.2729,.8398-.2729l.6934,.084v-2.1631c0-.3218,.0103-.5596,.0312-.7139,.021-.1538,.0869-.3218,.1992-.5039,.1816-.3501,.7212-.5254,1.6172-.5254,.9521,0,1.5186,.2593,1.7012,.7773,.0698,.2241,.1045,.5811,.1045,1.0708v2.0581c.6162-.0557,1.082-.084,1.397-.084s.5527,.0103,.7139,.0312c.1606,.021,.3462,.0879,.5566,.1997,.3638,.1821,.5459,.7212,.5459,1.6172,0,.8818-.189,1.4209-.5669,1.6167-.21,.0981-.3955,.1577-.5566,.1787s-.4023,.0312-.7246,.0312Z"/><path d="M379.8951,316.048c.084-.7837,.6372-1.1758,1.6587-1.1758,.5464,0,.9521,.042,1.2183,.126s.4517,.231,.5566,.4409,.168,.3955,.189,.5566,.0312,.4023,.0312,.7241v7.3501c0,.3223-.0103,.564-.0312,.7246-.021,.1611-.0811,.3467-.1787,.5566-.1963,.3643-.6758,.5459-1.4385,.5459-.7632,0-1.2739-.0947-1.5332-.2837-.2588-.189-.4092-.4653-.4512-.8291-.5181,.7422-1.3828,1.1128-2.5938,1.1128s-2.334-.5527-3.3701-1.6592c-1.0361-1.1055-1.5542-2.3901-1.5542-3.8535,0-1.4624,.5215-2.7437,1.5649-3.8428,1.0425-1.0991,2.187-1.6484,3.4331-1.6484,.4761,0,.9097,.084,1.3022,.252,.3916,.168,.6646,.3257,.8188,.4727,.1538,.147,.2798,.2905,.3779,.4302Zm-3.8218,4.3682c0,.4619,.1816,.8789,.5459,1.2495,.3638,.3711,.8047,.5566,1.3232,.5566,.5176,0,.9482-.189,1.291-.5674,.3428-.3779,.5146-.7944,.5146-1.2495,0-.4546-.165-.8784-.4932-1.2705-.3291-.3916-.7705-.5879-1.3232-.5879-.5532,0-1.001,.1963-1.3438,.5879-.3438,.3921-.5146,.8193-.5146,1.2812Z"/><path d="M391.6548,318.589l-1.3652-.084v2.8979c0,.3779,.0596,.6514,.1787,.8193,.1187,.168,.3428,.252,.6719,.252,.3286,0,.5806,.0103,.7563,.0312,.1748,.021,.3599,.0879,.5562,.1997,.3218,.1821,.4829,.6509,.4829,1.4067,0,.8823-.1963,1.4214-.5879,1.6172-.21,.0981-.3955,.1572-.5566,.1782s-.3955,.0317-.7031,.0317c-1.4565,0-2.5625-.3286-3.3184-.9868s-1.1338-1.771-1.1338-3.3394v-3.1079c-.2661,.042-.5532,.063-.8613,.063-.3076,0-.5635-.1187-.7666-.3569-.2026-.2378-.3042-.6436-.3042-1.2178s.0347-.9907,.105-1.2495c.0703-.2593,.168-.4443,.2939-.5566,.2236-.1816,.5039-.2729,.8398-.2729l.6934,.084v-2.1631c0-.3218,.0107-.5596,.0312-.7139,.0215-.1538,.0874-.3218,.1997-.5039,.1816-.3501,.7212-.5254,1.6167-.5254,.9521,0,1.519,.2593,1.7012,.7773,.0703,.2241,.105,.5811,.105,1.0708v2.0581c.6157-.0557,1.0815-.084,1.397-.084,.3145,0,.5527,.0103,.7139,.0312,.1606,.021,.3462,.0879,.5566,.1997,.3633,.1821,.5459,.7212,.5459,1.6172,0,.8818-.1895,1.4209-.5674,1.6167-.21,.0981-.3955,.1577-.5566,.1787s-.4023,.0312-.7241,.0312Z"/><path d="M399.5713,325.8971c-1.4141,0-2.5859-.5356-3.5171-1.6064-.9312-1.0713-1.3965-2.3765-1.3965-3.9165v-3.6753c0-.3359,.0103-.5806,.0317-.7349,.0205-.1538,.0801-.3359,.1782-.5459,.1958-.3779,.7417-.5669,1.6382-.5669,.9795,0,1.5537,.2661,1.7217,.7979,.084,.2241,.126,.5811,.126,1.0708v3.6753c0,.5742,.1646,1.022,.4937,1.3438,.3286,.3223,.77,.4834,1.3228,.4834s1.001-.168,1.3442-.5044c.3428-.3359,.5142-.7769,.5142-1.3228v-3.7173c0-.3218,.0107-.563,.0317-.7241s.0874-.3467,.1997-.5566c.1816-.3638,.7207-.5459,1.6172-.5459,.8818,0,1.4204,.189,1.6167,.5669,.0977,.21,.1577,.3955,.1782,.5566,.0215,.1611,.0317,.4023,.0317,.7241v7.4341c0,.3081-.0103,.543-.0317,.7036-.0205,.1611-.0874,.3398-.1992,.5356-.21,.3643-.749,.5459-1.6172,.5459-.854,0-1.3789-.168-1.5752-.5039-.1396-.2378-.21-.5249-.21-.8613-.0557,.0981-.1816,.2383-.3779,.4204s-.3848,.3359-.5664,.4619c-.4766,.3081-.9946,.4619-1.5547,.4619Z"/><path d="M407.4673,324.9523c-.2661-.168-.3989-.4341-.3989-.7983,0-.3638,.2656-.9165,.7979-1.6587,.1538-.2383,.4023-.3569,.7456-.3569,.3428,0,.8081,.1714,1.3965,.5142,.5879,.3433,1.1196,.5146,1.5962,.5146,.8535,0,1.2808-.168,1.2808-.5039,0-.2661-.4692-.4619-1.4067-.5879-.8823-.1265-1.7573-.4551-2.625-.9873-.4062-.252-.7422-.6475-1.0083-1.1865-.2661-.5386-.3989-1.1792-.3989-1.9214,0-2.2119,1.5186-3.3179,4.5566-3.3179,.9941,0,2.0166,.2383,3.0664,.7139,.4897,.2241,.7349,.5039,.7349,.8398s-.1543,.749-.4619,1.2393c-.3081,.4902-.6235,.7349-.9448,.7349-.168,0-.48-.105-.9346-.3149-.4551-.21-.9487-.3149-1.4805-.3149-.8262,0-1.2393,.1543-1.2393,.4619,0,.4199,.4756,.6929,1.4277,.8188,.9243,.0981,1.8203,.3643,2.6885,.7983,.4058,.1958,.7451,.5352,1.0186,1.0181,.2725,.4834,.4092,1.0889,.4092,1.8169s-.1367,1.3477-.4092,1.8584c-.2734,.5112-.6548,.8926-1.1445,1.1445-.8965,.4341-2.0195,.6509-3.3706,.6509s-2.6499-.3916-3.8955-1.1758Z"/></g><polyline class="cls-1" points="446.3481 109.045 488.4541 109.045 488.4541 217.4267 446.3481 217.4267"/><polyline class="cls-1" points="640.0144 1.5 703.3643 1.5 703.3643 388.4682 640.0144 388.4682"/><line class="cls-2" x1="488.4541" y1="163.2358" x2="536.2845" y2="163.2358"/><line class="cls-2" x1="605.3019" y1="223.7871" x2="605.3019" y2="175.9567"/><g><path d="M783.5249,194.2541l-1.3652-.084v2.8979c0,.3779,.0596,.6514,.1787,.8193,.1187,.168,.3428,.252,.6719,.252,.3286,0,.5806,.0103,.7563,.0312,.1748,.021,.3599,.0879,.5562,.1997,.3218,.1821,.4829,.6509,.4829,1.4067,0,.8823-.1963,1.4214-.5879,1.6172-.21,.0981-.3955,.1572-.5566,.1782s-.3955,.0317-.7031,.0317c-1.4565,0-2.5625-.3286-3.3184-.9868s-1.1338-1.771-1.1338-3.3394v-3.1079c-.2661,.042-.5532,.063-.8613,.063-.3076,0-.5635-.1187-.7666-.3569-.2026-.2378-.3042-.6436-.3042-1.2178s.0347-.9907,.105-1.2495c.0703-.2593,.168-.4443,.2939-.5566,.2236-.1816,.5039-.2729,.8398-.2729l.6934,.084v-2.1631c0-.3218,.0107-.5596,.0312-.7139,.0215-.1538,.0874-.3218,.1997-.5039,.1816-.3501,.7212-.5254,1.6167-.5254,.9521,0,1.519,.2593,1.7012,.7773,.0703,.2241,.105,.5811,.105,1.0708v2.0581c.6157-.0557,1.0815-.084,1.397-.084,.3145,0,.5527,.0103,.7139,.0312,.1606,.021,.3462,.0879,.5566,.1997,.3633,.1821,.5459,.7212,.5459,1.6172,0,.8818-.1895,1.4209-.5674,1.6167-.21,.0981-.3955,.1577-.5566,.1787s-.4023,.0312-.7241,.0312Z"/><path d="M796.5025,190.6633c.8257,.3643,1.2388,.8052,1.2388,1.3228,0,.252-.0557,.4902-.168,.7144-.1118,.2241-.168,.3433-.168,.3569l-5.502,12.3057c-.1123,.2661-.2065,.4692-.2832,.6094-.0771,.1396-.1992,.2729-.3677,.3989-.168,.126-.3779,.189-.6299,.189s-.623-.105-1.1128-.3149c-.8262-.3643-1.2393-.7983-1.2393-1.3022,0-.3359,.6719-1.939,2.0161-4.8091l-4.1792-7.0347c-.2803-.4619-.4199-.8052-.4199-1.0293,0-.4478,.3779-.8955,1.1338-1.3438,.4761-.2798,.8472-.4199,1.1133-.4199,.2656,0,.4829,.0562,.6509,.168,.1685,.1123,.2905,.2275,.3677,.3462,.0767,.1191,.4619,.7705,1.1553,1.9531,.6924,1.1831,1.3545,2.2856,1.9844,3.3076,.0693-.2236,.4478-1.0884,1.1338-2.5938,.6855-1.5044,1.0532-2.3062,1.1025-2.4043,.0488-.0977,.1289-.2168,.2412-.3569,.1821-.2378,.4375-.3569,.7666-.3569s.7178,.0981,1.1655,.2939Z"/><path d="M798.8965,204.6071v-12.2642c0-.3218,.0107-.5596,.0312-.7139,.0215-.1538,.0806-.3286,.1787-.5249,.1958-.3779,.665-.5669,1.4072-.5669,.7417,0,1.2422,.0942,1.501,.2832s.4097,.4658,.4517,.8296c.5317-.7275,1.3687-1.0918,2.5093-1.0918s2.2227,.5391,3.2451,1.6167c1.0215,1.0786,1.5327,2.3311,1.5327,3.7593s-.5073,2.6812-1.5225,3.7588c-1.0151,1.0781-2.0967,1.6172-3.2446,1.6172s-1.9814-.3218-2.499-.9658v4.2417c0,.3218-.0107,.5601-.0312,.7139-.0215,.1543-.084,.3325-.1895,.5356-.1045,.2026-.2832,.3467-.5352,.4307s-.5952,.126-1.0293,.126c-.4336,0-.7803-.042-1.0391-.126-.2598-.084-.4414-.2241-.5459-.4199-.1055-.1963-.168-.3711-.1895-.5254-.0205-.1538-.0312-.3921-.0312-.7139Zm4.1582-9.8911c-.3223,.3784-.4834,.7915-.4834,1.2393,0,.4482,.1646,.8574,.4937,1.2285,.3286,.3711,.7485,.5566,1.2603,.5566,.5107,0,.9443-.1821,1.3018-.5464,.3569-.3638,.5352-.7769,.5352-1.2388s-.168-.8784-.5039-1.2495c-.3359-.3706-.7734-.5566-1.3125-.5566s-.9697,.189-1.291,.5669Z"/><path d="M821.7862,194.7477c0,.8608-.2139,1.498-.6406,1.9111-.4272,.4131-.8994,.6191-1.4175,.6191h-4.9771c0,.3921,.2314,.7212,.6934,.9873s.9238,.3989,1.3857,.3989c.8115,0,1.4492-.084,1.9111-.252l.231-.084c.3359-.1538,.6157-.231,.8398-.231,.4478,0,.8325,.3149,1.1548,.9448,.1821,.3779,.2734,.7002,.2734,.9658,0,1.2466-1.4912,1.8691-4.4731,1.8691-1.0361,0-1.9565-.1782-2.7612-.5356-.8057-.3569-1.4316-.8291-1.8799-1.4175-.8818-1.1338-1.3232-2.4009-1.3232-3.8008,0-1.7642,.5703-3.1743,1.7119-4.2314,1.1406-1.0571,2.5654-1.5854,4.2734-1.5854,1.9458,0,3.374,.686,4.2842,2.0576,.4756,.7285,.7139,1.5229,.7139,2.3838Zm-4.4312,.6196c.5317,0,.7983-.2241,.7983-.6724,0-.3218-.123-.5806-.3677-.7769-.2451-.1958-.5952-.2939-1.0503-.2939s-.9062,.1855-1.3545,.5566-.6719,.7661-.6719,1.1865h2.646Z"/></g><line class="cls-1" x1="703.3643" y1="194.9841" x2="759.5283" y2="194.9841"/></g></svg>