<?xml version="1.0" encoding="UTF-8"?><svg id="Layer_2" xmlns="http://www.w3.org/2000/svg" width="185.3352" height="168.9054" viewBox="0 0 185.3352 168.9054"><defs><style>.cls-1{fill:#1a1a1a;}</style></defs><g id="Layer_1-2"><g><path class="cls-1" d="M168.9054,168.9054H0V0H168.9054V168.9054ZM8.9289,159.9764H159.9764V8.9289H8.9289V159.9764Z"/><g><path class="cls-1" d="M42.9161,57.788h-9.4833L21.0025,19.5327h8.6797l8.5191,26.8965h.1072l8.6259-26.8965h8.6797l-12.698,38.2553Z"/><path class="cls-1" d="M59.5706,19.5327h28.6106v7.0724h-20.1991v8.1979h18.5387v6.5361h-18.5387v9.3765h20.6278v7.0724h-29.0393V19.5327Z"/><path class="cls-1" d="M94.9782,19.5327h8.3578l15.9664,25.6641h.1075V19.5327h7.8753V57.788h-8.4116l-15.9126-25.6103h-.1068v25.6103h-7.876V19.5327Z"/><path class="cls-1" d="M135.3669,19.5327h8.4116V57.788h-8.4116V19.5327Z"/><path class="cls-1" d="M42.9161,102.4326h-9.4833l-12.4302-38.2553h8.6797l8.5191,26.8965h.1072l8.6259-26.8965h8.6797l-12.698,38.2553Z"/><path class="cls-1" d="M65.8742,64.1773h8.4116v38.2553h-8.4116v-38.2553Z"/><path class="cls-1" d="M88.6739,64.1773h16.5019c9.9121,0,17.3594,6.2157,17.3594,18.9136,0,11.0907-5.6794,19.3416-17.3594,19.3416h-16.5019v-38.2553Zm8.4116,31.1829h7.5011c4.8757,0,9.5364-3.0003,9.5364-11.4656,0-7.7154-2.6784-12.6449-11.0369-12.6449h-6.0006v24.1105Z"/><path class="cls-1" d="M135.3669,64.1773h8.4116v38.2553h-8.4116v-38.2553Z"/><path class="cls-1" d="M25.128,108.8226h8.3581l15.9664,25.6634h.1072v-25.6634h7.876v38.2545h-8.4119l-15.9126-25.6103h-.1072v25.6103h-7.876v-38.2545Z"/><path class="cls-1" d="M75.7485,108.8226h26.8957v7.0724h-18.4842v8.8403h16.0202v6.5361h-16.0202v15.8058h-8.4116v-38.2545Z"/><path class="cls-1" d="M126.9037,115.895h-11.4656v-7.0724h31.3428v7.0724h-11.4656v31.1822h-8.4116v-31.1822Z"/></g><path class="cls-1" d="M177.0551,1.2934h-1.8275V6.4802h-1.5942V1.2934h-1.8275V.0436h5.2492V1.2934Zm8.28,5.1867h-1.4998V1.9183h-.0312l-1.656,4.5618h-1.0783l-1.6553-4.5618h-.032V6.4802h-1.4998V.0436h2.1247l1.6095,4.2341L183.2265,.0436h2.1087V6.4802Z"/></g></g></svg>