<svg height="168.9054" viewBox="0 0 185.3352 168.9054" width="185.3352" xmlns="http://www.w3.org/2000/svg"><g fill="#1a1a1a"><path d="m168.9054 168.9054h-168.9054v-168.9054h168.9054zm-159.9765-8.929h151.0475v-151.0475h-151.0475z"/><path d="m42.9161 57.788h-9.4833l-12.4303-38.2553h8.6797l8.5191 26.8965h.1072l8.6259-26.8965h8.6797z"/><path d="m59.5706 19.5327h28.6106v7.0724h-20.1991v8.1979h18.5387v6.5361h-18.5387v9.3765h20.6278v7.0724h-29.0393z"/><path d="m94.9782 19.5327h8.3578l15.9664 25.6641h.1075v-25.6641h7.8753v38.2553h-8.4116l-15.9126-25.6103h-.1068v25.6103h-7.876z"/><path d="m135.3669 19.5327h8.4116v38.2553h-8.4116z"/><path d="m42.9161 102.4326h-9.4833l-12.4302-38.2553h8.6797l8.5191 26.8965h.1072l8.6259-26.8965h8.6797l-12.698 38.2553z"/><path d="m65.8742 64.1773h8.4116v38.2553h-8.4116z"/><path d="m88.6739 64.1773h16.5019c9.9121 0 17.3594 6.2157 17.3594 18.9136 0 11.0907-5.6794 19.3416-17.3594 19.3416h-16.5019v-38.2553zm8.4116 31.1829h7.5011c4.8757 0 9.5364-3.0003 9.5364-11.4656 0-7.7154-2.6784-12.6449-11.0369-12.6449h-6.0006z"/><path d="m135.3669 64.1773h8.4116v38.2553h-8.4116z"/><path d="m25.128 108.8226h8.3581l15.9664 25.6634h.1072v-25.6634h7.876v38.2545h-8.4119l-15.9126-25.6103h-.1072v25.6103h-7.876z"/><path d="m75.7485 108.8226h26.8957v7.0724h-18.4842v8.8403h16.0202v6.5361h-16.0202v15.8058h-8.4116v-38.2545z"/><path d="m126.9037 115.895h-11.4656v-7.0724h31.3428v7.0724h-11.4656v31.1822h-8.4116z"/><path d="m177.0551 1.2934h-1.8275v5.1868h-1.5942v-5.1868h-1.8275v-1.2498h5.2492zm8.28 5.1867h-1.4998v-4.5618h-.0312l-1.656 4.5618h-1.0783l-1.6553-4.5618h-.032v4.5619h-1.4998v-6.4366h2.1247l1.6095 4.2341 1.6096-4.2341h2.1087v6.4366z"/></g></svg>